<svg xmlns="http://www.w3.org/2000/svg" viewBox="0 0 512 512">
  <defs>
    <linearGradient id="bg" x1="0%" y1="0%" x2="100%" y2="100%">
      <stop offset="0%" style="stop-color:#3B82F6"/>
      <stop offset="100%" style="stop-color:#1D4ED8"/>
    </linearGradient>
    <linearGradient id="accent" x1="0%" y1="0%" x2="100%" y2="100%">
      <stop offset="0%" style="stop-color:#60A5FA"/>
      <stop offset="100%" style="stop-color:#3B82F6"/>
    </linearGradient>
  </defs>
  
  <!-- Background circle -->
  <circle cx="256" cy="256" r="240" fill="url(#bg)"/>
  
  <!-- Shopping bag body -->
  <path d="M160 180 L160 380 C160 395 172 407 187 407 L325 407 C340 407 352 395 352 380 L352 180 Z" 
        fill="white" 
        opacity="0.95"/>
  
  <!-- Bag handles -->
  <path d="M200 180 L200 140 C200 110 223 87 253 87 L259 87 C289 87 312 110 312 140 L312 180" 
        fill="none" 
        stroke="white" 
        stroke-width="24" 
        stroke-linecap="round"
        opacity="0.95"/>
  
  <!-- Location pin on bag -->
  <path d="M256 220 C230 220 209 241 209 267 C209 305 256 360 256 360 C256 360 303 305 303 267 C303 241 282 220 256 220 Z" 
        fill="url(#accent)"/>
  
  <!-- Pin center dot -->
  <circle cx="256" cy="267" r="18" fill="white"/>
</svg>
