<svg xmlns="http://www.w3.org/2000/svg" viewBox="0 0 200 50">
  <defs>
    <linearGradient id="iconGrad" x1="0%" y1="0%" x2="100%" y2="100%">
      <stop offset="0%" style="stop-color:#3B82F6"/>
      <stop offset="100%" style="stop-color:#1D4ED8"/>
    </linearGradient>
    <linearGradient id="pinGrad" x1="0%" y1="0%" x2="100%" y2="100%">
      <stop offset="0%" style="stop-color:#60A5FA"/>
      <stop offset="100%" style="stop-color:#3B82F6"/>
    </linearGradient>
  </defs>
  
  <!-- Icon -->
  <g transform="translate(5, 5)">
    <!-- Background circle -->
    <circle cx="20" cy="20" r="20" fill="url(#iconGrad)"/>
    
    <!-- Shopping bag -->
    <path d="M12 14 L12 30 C12 31.5 13 32.5 14.5 32.5 L25.5 32.5 C27 32.5 28 31.5 28 30 L28 14 Z" 
          fill="white" opacity="0.95"/>
    
    <!-- Bag handles -->
    <path d="M15 14 L15 11 C15 9 16.5 7.5 18.5 7.5 L21.5 7.5 C23.5 7.5 25 9 25 11 L25 14" 
          fill="none" stroke="white" stroke-width="2" stroke-linecap="round" opacity="0.95"/>
    
    <!-- Location pin -->
    <path d="M20 16 C17.5 16 15.5 18 15.5 20.5 C15.5 24 20 28 20 28 C20 28 24.5 24 24.5 20.5 C24.5 18 22.5 16 20 16 Z" 
          fill="url(#pinGrad)"/>
    <circle cx="20" cy="20.5" r="2" fill="white"/>
  </g>
  
  <!-- Text -->
  <text x="55" y="33" font-family="system-ui, -apple-system, BlinkMacSystemFont, sans-serif" font-size="26" font-weight="700" fill="#1F2937">
    Tirgus
  </text>
</svg>
